<?xml version="1.0" encoding="utf-8"?>
<svg id="master-artboard" viewBox="0 0 847.4090576171875 989.148681640625" xmlns="http://www.w3.org/2000/svg" width="847.4090576171875px" height="989.148681640625px" version="1.1" style="shape-rendering:geometricPrecision; text-rendering:geometricPrecision; image-rendering:optimizeQuality; fill-rule:evenodd; clip-rule:evenodd"><defs><style id="ee-google-fonts">@import url(https://fonts.googleapis.com/css?family=Allura:400|Bilbo:400);</style></defs><rect id="ee-background" x="0" y="0" width="847.4090576171875" height="989.148681640625" style="fill: white; fill-opacity: 1; pointer-events: none;"/>
 
 <metadata id="CorelCorpID_0Corel-Layer"/>
<g transform="matrix(4.62263822555542, 0, 0, 4.62263822555542, -2627.6820487976074, -3357.6832695007324)"><g id="g-1" transform="matrix(1, 0, 0, 1, 0, 0)">
	<g id="g-2">
		<g>
			<path class="st0" d="M654,884c-29.2,0-53-23.8-53-53s23.8-53,53-53s53,23.8,53,53S683.2,884,654,884z M654,784&#10;&#9;&#9;&#9;&#9;c-25.9,0-47,21.1-47,47s21.1,47,47,47s47-21.1,47-47S679.9,784,654,784z" style="fill: rgb(51, 51, 51); stroke-opacity: 1; fill-opacity: 1;"/>
		</g>
	</g>
</g></g><g transform="matrix(1.9140625, 0, 0, 1.9140625, -62.28411865234375, 3.8953208923339844)"><path style="fill:#EF431D;" d="M258.037,0.011L256,512l153.848-205.903c23.788-31.923,37.854-71.511,37.854-114.394&#10;&#9;C447.702,86.5,362.98,1.103,258.037,0.011z"/><path style="fill:#FD7555;" d="M413.944,191.702c0,42.884-11.59,82.471-31.193,114.395L256,512L102.152,306.097&#10;&#9;c-23.788-31.924-37.854-71.511-37.854-114.395C64.298,85.825,150.123,0,256,0c0.686,0,1.362,0,2.037,0.011&#10;&#9;C344.334,1.339,413.944,86.657,413.944,191.702z"/><path style="fill:#CCECFF;" d="M257.598,34.175v315.054c86.275-0.855,155.941-71.05,155.941-157.526&#10;&#9;C413.538,105.224,343.873,35.03,257.598,34.175z"/><path style="fill:#FFFFFF;" d="M257.598,34.175c67.629,1.092,122.182,71.196,122.182,157.527s-54.553,156.436-122.182,157.527&#10;&#9;c-0.529,0.011-1.069,0.011-1.598,0.011c-87.006,0-157.538-70.532-157.538-157.538S168.994,34.163,256,34.163&#10;&#9;C256.529,34.163,257.069,34.163,257.598,34.175z"/><path style="fill:#66C6FE;" d="M316.484,206.337v83.26c0,4.661,3.779,8.44,8.44,8.44s8.44-3.779,8.44-8.44v-64.135L316.484,206.337z&#10;&#9;"/><path style="fill:#99D9FF;" d="M333.363,116.311v109.152h-22.505c-12.434,0-22.505-10.071-22.505-22.506v-86.646&#10;&#9;c0-12.423,10.071-22.506,22.505-22.506C323.291,93.805,333.363,103.888,333.363,116.311z"/><path style="fill:#66C6FE;" d="M212.396,183.832v105.766c0,4.661,3.779,8.44,8.44,8.44c4.661,0,8.44-3.779,8.44-8.44V183.832&#10;&#9;H212.396z"/><g>
	<path style="fill:#99D9FF;" d="M220.835,93.805c-4.661,0-8.44,3.779-8.44,8.44v67.516h16.879v-67.516&#10;&#9;&#9;C229.275,97.584,225.496,93.805,220.835,93.805z"/>
	<path style="fill:#99D9FF;" d="M254.593,93.805c-4.661,0-8.44,3.779-8.44,8.44v67.516l16.879-16.312v-51.205&#10;&#9;&#9;C263.033,97.584,259.254,93.805,254.593,93.805z"/>
	<path style="fill:#99D9FF;" d="M187.077,93.805c-4.661,0-8.44,3.779-8.44,8.44v51.205l16.879,16.312v-67.516&#10;&#9;&#9;C195.516,97.584,191.738,93.805,187.077,93.805z"/>
	<path style="fill:#99D9FF;" d="M263.033,152.887v16.879c0,23.308-18.89,42.198-42.198,42.198s-42.198-18.89-42.198-42.198v-16.879&#10;&#9;&#9;h42.198H263.033z"/>
</g><g>
</g><g>
</g><g>
</g><g>
</g><g>
</g><g>
</g><g>
</g><g>
</g><g>
</g><g>
</g><g>
</g><g>
</g><g>
</g><g>
</g><g>
</g></g><path d="M 180.3715362548828 229.61000061035156 C 180.42486572265625 229.61000061035156 180.4515380859375 229.6566619873047 180.4515380859375 229.75 C 180.4515380859375 229.85000610351562 180.33819580078125 230.00999450683594 180.11154174804688 230.22999572753906 L 179.8715362548828 230.58999633789062 C 179.43820190429688 231.25 179.1215362548828 231.63333129882812 178.92153930664062 231.74000549316406 C 178.72154235839844 231.85333251953125 178.56153869628906 231.91000366210938 178.44154357910156 231.91000366210938 C 178.321533203125 231.91000366210938 178.13819885253906 231.88333129882812 177.89154052734375 231.8300018310547 C 177.64486694335938 231.77000427246094 177.51820373535156 231.7100067138672 177.51153564453125 231.64999389648438 C 177.49819946289062 231.5833282470703 177.4915313720703 231.52000427246094 177.4915313720703 231.4600067138672 C 177.4915313720703 230.67333984375 178.20486450195312 228.90333557128906 179.63153076171875 226.14999389648438 C 179.244873046875 226.19667053222656 178.9515380859375 226.22000122070312 178.7515411376953 226.22000122070312 C 178.55152893066406 226.22000122070312 178.38487243652344 226.16000366210938 178.2515411376953 226.0399932861328 C 178.1182098388672 225.9199981689453 178.05152893066406 225.76666259765625 178.05152893066406 225.5800018310547 C 178.05152893066406 225.3866729736328 178.21820068359375 225.2100067138672 178.55152893066406 225.0500030517578 C 178.88487243652344 224.88999938964844 179.14486694335938 224.80999755859375 179.33154296875 224.80999755859375 C 179.51820373535156 224.80999755859375 179.67486572265625 224.8866729736328 179.80152893066406 225.0399932861328 C 179.92820739746094 225.18666076660156 180.00820922851562 225.25999450683594 180.04153442382812 225.25999450683594 L 180.11154174804688 225.25999450683594 C 180.4448699951172 224.65333557128906 180.74819946289062 224.0933380126953 181.0215301513672 223.5800018310547 C 181.2948760986328 223.07333374023438 181.43153381347656 222.7433319091797 181.43153381347656 222.58999633789062 C 181.43153381347656 222.43666076660156 181.408203125 222.32000732421875 181.36154174804688 222.24000549316406 C 181.45486450195312 221.77333068847656 181.85153198242188 221.17999267578125 182.55154418945312 220.4600067138672 C 183.244873046875 219.74000549316406 183.87820434570312 219.3800048828125 184.4515380859375 219.3800048828125 C 184.71153259277344 219.3800048828125 185.02487182617188 219.47999572753906 185.39154052734375 219.67999267578125 C 185.75820922851562 219.8800048828125 185.91819763183594 220.13999938964844 185.8715362548828 220.4600067138672 C 185.75820922851562 220.3800048828125 185.65487670898438 220.33999633789062 185.56153869628906 220.33999633789062 C 184.47486877441406 220.33999633789062 182.97821044921875 221.97332763671875 181.071533203125 225.24000549316406 C 181.59820556640625 225.19332885742188 182.1515350341797 225.1199951171875 182.73153686523438 225.02000427246094 C 184.6515350341797 224.77999877929688 185.7382049560547 224.66000366210938 185.9915313720703 224.66000366210938 C 186.244873046875 224.66000366210938 186.408203125 224.6666717529297 186.48153686523438 224.67999267578125 C 186.55487060546875 224.68666076660156 186.6182098388672 224.7066650390625 186.67153930664062 224.74000549316406 C 186.73153686523438 224.76666259765625 186.76820373535156 224.79666137695312 186.7815399169922 224.8300018310547 C 186.80154418945312 224.92999267578125 186.6182098388672 225.0433349609375 186.23153686523438 225.1699981689453 C 185.30487060546875 225.47000122070312 183.42486572265625 225.77333068847656 180.59153747558594 226.0800018310547 C 179.244873046875 228.51333618164062 178.571533203125 230.00999450683594 178.571533203125 230.57000732421875 C 178.571533203125 230.8433380126953 178.68820190429688 230.94332885742188 178.92153930664062 230.8699951171875 C 179.15487670898438 230.79666137695312 179.3582000732422 230.64666748046875 179.5315399169922 230.4199981689453 C 179.9515380859375 229.8800048828125 180.23153686523438 229.61000061035156 180.3715362548828 229.61000061035156 M 189.76153564453125 218.17999267578125 C 190.22154235839844 217.67333984375 190.66152954101562 217.4199981689453 191.08154296875 217.4199981689453 C 191.27487182617188 217.4199981689453 191.42486572265625 217.46665954589844 191.5315399169922 217.55999755859375 C 191.64486694335938 217.65333557128906 191.7015380859375 217.75 191.7015380859375 217.85000610351562 C 191.7015380859375 217.94332885742188 191.65487670898438 218.0399932861328 191.56153869628906 218.13999938964844 C 191.46153259277344 218.23333740234375 191.2781982421875 218.3800048828125 191.01153564453125 218.5800018310547 C 190.7382049560547 218.77999877929688 190.5215301513672 218.9600067138672 190.36154174804688 219.1199951171875 C 189.59486389160156 219.8733367919922 189.21153259277344 220.52000427246094 189.21153259277344 221.05999755859375 C 189.21153259277344 221.3000030517578 189.26153564453125 221.5 189.36154174804688 221.66000366210938 C 189.46820068359375 221.82000732421875 189.4582061767578 221.9199981689453 189.33154296875 221.9600067138672 C 189.1981964111328 222 189.0782012939453 221.9499969482422 188.97154235839844 221.80999755859375 C 188.8248748779297 221.7100067138672 188.7515411376953 221.38999938964844 188.7515411376953 220.85000610351562 C 188.7515411376953 220.1300048828125 188.87820434570312 219.52999877929688 189.13153076171875 219.0500030517578 C 189.1648712158203 219.00332641601562 189.21820068359375 218.9199981689453 189.29153442382812 218.8000030517578 C 189.3648681640625 218.67999267578125 189.42486572265625 218.5933380126953 189.47154235839844 218.5399932861328 C 189.3582000732422 218.5399932861328 189.05819702148438 218.5399932861328 188.571533203125 218.5399932861328 C 188.08486938476562 218.5399932861328 187.1182098388672 218.47666931152344 185.67153930664062 218.35000610351562 C 184.21820068359375 218.22332763671875 183.12486267089844 218.16000366210938 182.39154052734375 218.16000366210938 C 181.658203125 218.16000366210938 181.09153747558594 218.2066650390625 180.69154357910156 218.3000030517578 C 179.17153930664062 218.51333618164062 177.86154174804688 218.93333435058594 176.76153564453125 219.55999755859375 C 175.66819763183594 220.19332885742188 175.01820373535156 220.99000549316406 174.81153869628906 221.9499969482422 C 174.7781982421875 222.0500030517578 174.76153564453125 222.1666717529297 174.76153564453125 222.3000030517578 C 174.76153564453125 222.43333435058594 174.80487060546875 222.59666442871094 174.89154052734375 222.7899932861328 C 174.97821044921875 222.98333740234375 175.08486938476562 223.1366729736328 175.21153259277344 223.25 C 175.34486389160156 223.3633270263672 175.54153442382812 223.5 175.80152893066406 223.66000366210938 C 176.06820678710938 223.82000732421875 176.244873046875 223.93333435058594 176.33154296875 224 C 176.41819763183594 224.07333374023438 176.43487548828125 224.13333129882812 176.38153076171875 224.17999267578125 C 176.321533203125 224.23333740234375 176.26486206054688 224.25999450683594 176.21153259277344 224.25999450683594 C 176.158203125 224.25999450683594 176.09820556640625 224.25 176.0315399169922 224.22999572753906 C 175.48486328125 224.07000732421875 175.02487182617188 223.77000427246094 174.6515350341797 223.3300018310547 C 174.2781982421875 222.88999938964844 174.09153747558594 222.52333068847656 174.09153747558594 222.22999572753906 C 174.09153747558594 221.92999267578125 174.13153076171875 221.67666625976562 174.21153259277344 221.47000122070312 C 174.21153259277344 221.29666137695312 174.21820068359375 221.1699981689453 174.23153686523438 221.08999633789062 C 174.47154235839844 219.9499969482422 175.1981964111328 219.07000732421875 176.41152954101562 218.4499969482422 C 177.8715362548828 217.69667053222656 179.64820861816406 217.32000732421875 181.7415313720703 217.32000732421875 C 182.89486694335938 217.32000732421875 184.31153869628906 217.4566650390625 185.9915313720703 217.72999572753906 C 187.67153930664062 218.00332641601562 188.92820739746094 218.15333557128906 189.76153564453125 218.17999267578125 Z" transform="matrix(8.326119422912598, -4.0059614181518555, 4.0059614181518555, 8.326119422912598, -2039.283935546875, -353.65618896484375)" style="fill: rgb(77, 129, 189); white-space: pre; color: rgb(77, 129, 189);"/><path d="M 216.8288116455078 256.6499938964844 C 216.92881774902344 257.5299987792969 217.26547241210938 258.23333740234375 217.83880615234375 258.760009765625 C 218.41880798339844 259.28668212890625 219.0788116455078 259.69000244140625 219.81881713867188 259.9700012207031 C 220.5654754638672 260.25 221.30548095703125 260.5233459472656 222.038818359375 260.7900085449219 C 222.77880859375 261.04998779296875 223.39881896972656 261.3766784667969 223.89881896972656 261.7699890136719 C 224.4054718017578 262.163330078125 224.6588134765625 262.64666748046875 224.6588134765625 263.2200012207031 C 224.6588134765625 264.5 223.9054718017578 265.6866760253906 222.39881896972656 266.7799987792969 C 220.89881896972656 267.8666687011719 219.2288055419922 268.4100036621094 217.38880920410156 268.4100036621094 C 215.54881286621094 268.4100036621094 214.62881469726562 267.8399963378906 214.62881469726562 266.70001220703125 L 214.62881469726562 266.5400085449219 C 214.62881469726562 265.9800109863281 214.84214782714844 265.70001220703125 215.26881408691406 265.70001220703125 C 215.34881591796875 265.70001220703125 215.4054718017578 265.74334716796875 215.43881225585938 265.8299865722656 C 215.47215270996094 265.9166564941406 215.51214599609375 266.0400085449219 215.55880737304688 266.20001220703125 C 215.70547485351562 266.82666015625 216.0654754638672 267.23333740234375 216.63880920410156 267.4200134277344 C 217.02548217773438 267.5666809082031 217.54547119140625 267.6400146484375 218.1988067626953 267.6400146484375 C 219.38548278808594 267.6400146484375 220.54214477539062 267.2866516113281 221.66880798339844 266.5799865722656 C 222.79547119140625 265.8800048828125 223.3588104248047 265.010009765625 223.3588104248047 263.9700012207031 C 223.3588104248047 262.9766540527344 222.4788055419922 262.1533203125 220.71881103515625 261.5 C 219.9854736328125 261.2266540527344 219.2454833984375 260.9333190917969 218.49880981445312 260.6199951171875 C 217.75881958007812 260.3066711425781 217.13214111328125 259.8733215332031 216.61880493164062 259.32000732421875 C 216.10548400878906 258.7733459472656 215.84881591796875 258.1066589355469 215.84881591796875 257.32000732421875 C 215.84881591796875 255.9600067138672 216.5821533203125 254.75332641601562 218.04881286621094 253.6999969482422 C 219.50881958007812 252.63999938964844 221.16880798339844 252.11000061035156 223.02880859375 252.11000061035156 C 224.62881469726562 252.11000061035156 225.42881774902344 252.90333557128906 225.42881774902344 254.49000549316406 C 225.42881774902344 254.68333435058594 225.36215209960938 254.92333984375 225.2288055419922 255.2100067138672 C 225.10214233398438 255.49667358398438 224.942138671875 255.63999938964844 224.74880981445312 255.63999938964844 C 224.64215087890625 255.63999938964844 224.58880615234375 255.5366668701172 224.58880615234375 255.3300018310547 L 224.58880615234375 254.85000610351562 C 224.58880615234375 253.61666870117188 223.81881713867188 253 222.27880859375 253 C 221.62547302246094 253 220.89547729492188 253.1266632080078 220.08880615234375 253.3800048828125 C 219.27548217773438 253.63999938964844 218.52880859375 254.06666564941406 217.84881591796875 254.66000366210938 C 217.16880798339844 255.24667358398438 216.8288116455078 255.91000366210938 216.8288116455078 256.6499938964844 Z" transform="matrix(9.782280921936035, 1.457311987876892, -1.457311987876892, 9.782280921936035, -1291.2000732421875, -2085.536865234375)" style="fill: rgb(77, 129, 189); white-space: pre; color: rgb(51, 51, 51);"/></svg>